<mxfile host="65bd71144e">
    <diagram id="TblW12fGxgtegXIIMCht" name="Page-1">
        <mxGraphModel dx="2052" dy="1009" grid="1" gridSize="10" guides="0" tooltips="1" connect="1" arrows="1" fold="1" page="1" pageScale="1" pageWidth="1100" pageHeight="850" math="0" shadow="0">
            <root>
                <mxCell id="0"/>
                <mxCell id="1" parent="0"/>
                <mxCell id="64" value="Workflow" style="swimlane;horizontal=0;whiteSpace=wrap;html=1;dashed=1;dashPattern=8 8;glass=0;fillStyle=auto;swimlaneFillColor=none;gradientColor=none;" parent="1" vertex="1">
                    <mxGeometry x="10" y="360" width="1285" height="270" as="geometry">
                        <mxRectangle x="260" y="420" width="40" height="80" as="alternateBounds"/>
                    </mxGeometry>
                </mxCell>
                <mxCell id="69" value="Plan Dev" style="shape=process;whiteSpace=wrap;html=1;backgroundOutline=1;fillColor=#60a917;fontColor=#ffffff;strokeColor=#2D7600;" parent="64" vertex="1">
                    <mxGeometry x="450" y="9" width="86.08695652173913" height="27.692307692307693" as="geometry"/>
                </mxCell>
                <mxCell id="70" style="edgeStyle=orthogonalEdgeStyle;html=1;entryX=0;entryY=0.75;entryDx=0;entryDy=0;" parent="64" source="68" target="69" edge="1">
                    <mxGeometry relative="1" as="geometry"/>
                </mxCell>
                <mxCell id="71" value="Plan Prd" style="shape=process;whiteSpace=wrap;html=1;backgroundOutline=1;fillColor=#60a917;fontColor=#ffffff;strokeColor=#2D7600;" parent="64" vertex="1">
                    <mxGeometry x="450" y="41.30769230769231" width="86.08695652173913" height="27.692307692307693" as="geometry"/>
                </mxCell>
                <mxCell id="72" style="edgeStyle=orthogonalEdgeStyle;html=1;" parent="64" source="68" target="71" edge="1">
                    <mxGeometry relative="1" as="geometry"/>
                </mxCell>
                <mxCell id="68" value="" style="ellipse;whiteSpace=wrap;html=1;aspect=fixed;" parent="64" vertex="1">
                    <mxGeometry x="390" y="29" width="30.77" height="30.77" as="geometry"/>
                </mxCell>
                <mxCell id="30" value="" style="ellipse;whiteSpace=wrap;html=1;aspect=fixed;" parent="64" vertex="1">
                    <mxGeometry x="216" y="30" width="30.77" height="30.77" as="geometry"/>
                </mxCell>
                <mxCell id="16" value="Plan Dev" style="shape=process;whiteSpace=wrap;html=1;backgroundOutline=1;fillColor=#60a917;fontColor=#ffffff;strokeColor=#2D7600;" parent="64" vertex="1">
                    <mxGeometry x="276" y="10" width="86.08695652173913" height="27.692307692307693" as="geometry"/>
                </mxCell>
                <mxCell id="31" style="edgeStyle=orthogonalEdgeStyle;html=1;entryX=0;entryY=0.75;entryDx=0;entryDy=0;" parent="64" source="30" target="16" edge="1">
                    <mxGeometry relative="1" as="geometry"/>
                </mxCell>
                <mxCell id="17" value="Plan Prd" style="shape=process;whiteSpace=wrap;html=1;backgroundOutline=1;fillColor=#60a917;fontColor=#ffffff;strokeColor=#2D7600;" parent="64" vertex="1">
                    <mxGeometry x="276" y="42.30769230769231" width="86.08695652173913" height="27.692307692307693" as="geometry"/>
                </mxCell>
                <mxCell id="32" style="edgeStyle=orthogonalEdgeStyle;html=1;" parent="64" source="30" target="17" edge="1">
                    <mxGeometry relative="1" as="geometry"/>
                </mxCell>
                <mxCell id="129" value="Plans run sequentially across all envs" style="text;html=1;strokeColor=none;fillColor=none;align=left;verticalAlign=top;whiteSpace=wrap;rounded=0;" vertex="1" parent="64">
                    <mxGeometry x="50" y="30" width="130" height="40" as="geometry"/>
                </mxCell>
                <mxCell id="135" value="" style="ellipse;whiteSpace=wrap;html=1;aspect=fixed;" vertex="1" parent="64">
                    <mxGeometry x="550" y="30" width="30.77" height="30.77" as="geometry"/>
                </mxCell>
                <mxCell id="136" value="Plan Dev" style="shape=process;whiteSpace=wrap;html=1;backgroundOutline=1;fillColor=#60a917;fontColor=#ffffff;strokeColor=#2D7600;" vertex="1" parent="64">
                    <mxGeometry x="610" y="10" width="86.08695652173913" height="27.692307692307693" as="geometry"/>
                </mxCell>
                <mxCell id="137" style="edgeStyle=orthogonalEdgeStyle;html=1;entryX=0;entryY=0.75;entryDx=0;entryDy=0;" edge="1" parent="64" source="135" target="136">
                    <mxGeometry relative="1" as="geometry"/>
                </mxCell>
                <mxCell id="138" value="Plan Prd" style="shape=process;whiteSpace=wrap;html=1;backgroundOutline=1;fillColor=#60a917;fontColor=#ffffff;strokeColor=#2D7600;" vertex="1" parent="64">
                    <mxGeometry x="610" y="42.30769230769232" width="86.08695652173913" height="27.692307692307693" as="geometry"/>
                </mxCell>
                <mxCell id="139" style="edgeStyle=orthogonalEdgeStyle;html=1;" edge="1" parent="64" source="135" target="138">
                    <mxGeometry relative="1" as="geometry"/>
                </mxCell>
                <mxCell id="140" value="Apply Dev" style="shape=process;whiteSpace=wrap;html=1;backgroundOutline=1;fillColor=#60a917;fontColor=#ffffff;strokeColor=#2D7600;" vertex="1" parent="64">
                    <mxGeometry x="718.4782608695652" y="10" width="86.08695652173913" height="27.692307692307693" as="geometry"/>
                </mxCell>
                <mxCell id="141" value="" style="edgeStyle=orthogonalEdgeStyle;html=1;" edge="1" parent="64" source="136" target="140">
                    <mxGeometry relative="1" as="geometry"/>
                </mxCell>
                <mxCell id="142" value="Apply Prd" style="shape=process;whiteSpace=wrap;html=1;backgroundOutline=1;fillColor=#bac8d3;strokeColor=#23445d;" vertex="1" parent="64">
                    <mxGeometry x="818.9130434782609" y="42.30769230769232" width="86.08695652173913" height="27.692307692307693" as="geometry"/>
                </mxCell>
                <mxCell id="143" value="" style="edgeStyle=orthogonalEdgeStyle;html=1;" edge="1" parent="64" source="138" target="142">
                    <mxGeometry relative="1" as="geometry"/>
                </mxCell>
                <mxCell id="144" style="edgeStyle=orthogonalEdgeStyle;html=1;entryX=0;entryY=0.5;entryDx=0;entryDy=0;exitX=0.5;exitY=1;exitDx=0;exitDy=0;" edge="1" parent="64" source="140" target="142">
                    <mxGeometry relative="1" as="geometry"/>
                </mxCell>
                <mxCell id="145" value="Approval Canceled" style="text;html=1;strokeColor=none;fillColor=none;align=center;verticalAlign=middle;whiteSpace=wrap;rounded=0;" vertex="1" parent="64">
                    <mxGeometry x="835" y="10" width="60" height="30" as="geometry"/>
                </mxCell>
                <mxCell id="7GTSfHInl9Ud3nvunqyQ-146" value="" style="ellipse;whiteSpace=wrap;html=1;aspect=fixed;" vertex="1" parent="64">
                    <mxGeometry x="930" y="30" width="30.77" height="30.77" as="geometry"/>
                </mxCell>
                <mxCell id="7GTSfHInl9Ud3nvunqyQ-147" value="Plan Dev" style="shape=process;whiteSpace=wrap;html=1;backgroundOutline=1;fillColor=#60a917;fontColor=#ffffff;strokeColor=#2D7600;" vertex="1" parent="64">
                    <mxGeometry x="990" y="10" width="86.08695652173913" height="27.692307692307693" as="geometry"/>
                </mxCell>
                <mxCell id="7GTSfHInl9Ud3nvunqyQ-148" style="edgeStyle=orthogonalEdgeStyle;html=1;entryX=0;entryY=0.75;entryDx=0;entryDy=0;" edge="1" parent="64" source="7GTSfHInl9Ud3nvunqyQ-146" target="7GTSfHInl9Ud3nvunqyQ-147">
                    <mxGeometry relative="1" as="geometry"/>
                </mxCell>
                <mxCell id="7GTSfHInl9Ud3nvunqyQ-149" value="Plan Prd" style="shape=process;whiteSpace=wrap;html=1;backgroundOutline=1;fillColor=#60a917;fontColor=#ffffff;strokeColor=#2D7600;" vertex="1" parent="64">
                    <mxGeometry x="990" y="42.30769230769232" width="86.08695652173913" height="27.692307692307693" as="geometry"/>
                </mxCell>
                <mxCell id="7GTSfHInl9Ud3nvunqyQ-150" style="edgeStyle=orthogonalEdgeStyle;html=1;" edge="1" parent="64" source="7GTSfHInl9Ud3nvunqyQ-146" target="7GTSfHInl9Ud3nvunqyQ-149">
                    <mxGeometry relative="1" as="geometry"/>
                </mxCell>
                <mxCell id="7GTSfHInl9Ud3nvunqyQ-151" value="Apply Dev" style="shape=process;whiteSpace=wrap;html=1;backgroundOutline=1;fillColor=#60a917;fontColor=#ffffff;strokeColor=#2D7600;" vertex="1" parent="64">
                    <mxGeometry x="1098.4782608695652" y="10" width="86.08695652173913" height="27.692307692307693" as="geometry"/>
                </mxCell>
                <mxCell id="7GTSfHInl9Ud3nvunqyQ-152" value="" style="edgeStyle=orthogonalEdgeStyle;html=1;" edge="1" parent="64" source="7GTSfHInl9Ud3nvunqyQ-147" target="7GTSfHInl9Ud3nvunqyQ-151">
                    <mxGeometry relative="1" as="geometry"/>
                </mxCell>
                <mxCell id="7GTSfHInl9Ud3nvunqyQ-153" value="Apply Prd" style="shape=process;whiteSpace=wrap;html=1;backgroundOutline=1;fillColor=#60a917;strokeColor=#23445d;" vertex="1" parent="64">
                    <mxGeometry x="1198.913043478261" y="42.30769230769232" width="86.08695652173913" height="27.692307692307693" as="geometry"/>
                </mxCell>
                <mxCell id="7GTSfHInl9Ud3nvunqyQ-154" value="" style="edgeStyle=orthogonalEdgeStyle;html=1;" edge="1" parent="64" source="7GTSfHInl9Ud3nvunqyQ-149" target="7GTSfHInl9Ud3nvunqyQ-153">
                    <mxGeometry relative="1" as="geometry"/>
                </mxCell>
                <mxCell id="7GTSfHInl9Ud3nvunqyQ-155" style="edgeStyle=orthogonalEdgeStyle;html=1;entryX=0;entryY=0.5;entryDx=0;entryDy=0;exitX=0.5;exitY=1;exitDx=0;exitDy=0;" edge="1" parent="64" source="7GTSfHInl9Ud3nvunqyQ-151" target="7GTSfHInl9Ud3nvunqyQ-153">
                    <mxGeometry relative="1" as="geometry"/>
                </mxCell>
                <mxCell id="7GTSfHInl9Ud3nvunqyQ-156" value="Approved" style="text;html=1;strokeColor=none;fillColor=none;align=center;verticalAlign=middle;whiteSpace=wrap;rounded=0;" vertex="1" parent="64">
                    <mxGeometry x="1215" y="10" width="60" height="30" as="geometry"/>
                </mxCell>
                <mxCell id="7GTSfHInl9Ud3nvunqyQ-161" value="Requires a branch per env" style="text;html=1;strokeColor=none;fillColor=none;align=left;verticalAlign=top;whiteSpace=wrap;rounded=0;" vertex="1" parent="64">
                    <mxGeometry x="50" y="90" width="330" height="140" as="geometry"/>
                </mxCell>
                <mxCell id="84" value="Git Changes" style="swimlane;horizontal=0;whiteSpace=wrap;html=1;glass=0;dashed=1;dashPattern=8 8;fillStyle=auto;gradientColor=none;" parent="1" vertex="1">
                    <mxGeometry x="10" y="80" width="1290" height="270" as="geometry"/>
                </mxCell>
                <mxCell id="9" value="Main" style="rounded=1;whiteSpace=wrap;html=1;fillColor=#1ba1e2;fontColor=#ffffff;strokeColor=#006EAF;" parent="84" vertex="1">
                    <mxGeometry x="1192.9192307692308" y="20" width="89.23076923076923" height="39.57446808510638" as="geometry"/>
                </mxCell>
                <mxCell id="10" value="branch-1" style="rounded=1;whiteSpace=wrap;html=1;fillColor=#f0a30a;fontColor=#000000;strokeColor=#BD7000;" parent="84" vertex="1">
                    <mxGeometry x="1189.9992307692307" y="150.003829787234" width="89.23076923076923" height="39.57446808510638" as="geometry"/>
                </mxCell>
                <mxCell id="11" value="branch-2" style="rounded=1;whiteSpace=wrap;html=1;fillColor=#fa6800;fontColor=#000000;strokeColor=#C73500;" parent="84" vertex="1">
                    <mxGeometry x="1189.9992307692307" y="209.36553191489355" width="89.23076923076923" height="39.57446808510638" as="geometry"/>
                </mxCell>
                <mxCell id="23" value="" style="edgeStyle=orthogonalEdgeStyle;html=1;entryX=0;entryY=0.5;entryDx=0;entryDy=0;" parent="84" source="2" target="9" edge="1">
                    <mxGeometry relative="1" as="geometry">
                        <mxPoint x="126.66666666666674" y="39.78723404255311" as="targetPoint"/>
                    </mxGeometry>
                </mxCell>
                <mxCell id="126" style="edgeStyle=none;html=1;" edge="1" parent="84" source="2" target="116">
                    <mxGeometry relative="1" as="geometry"/>
                </mxCell>
                <mxCell id="2" value="Main" style="ellipse;whiteSpace=wrap;html=1;aspect=fixed;fillColor=#1ba1e2;fontColor=#ffffff;strokeColor=#006EAF;align=center;verticalAlign=bottom;labelPosition=center;verticalLabelPosition=top;" parent="84" vertex="1">
                    <mxGeometry x="56" y="23.29787234042553" width="32.97872340425532" height="32.97872340425532" as="geometry"/>
                </mxCell>
                <mxCell id="12" value="PR" style="ellipse;whiteSpace=wrap;html=1;aspect=fixed;fillColor=#f0a30a;fontColor=#FFFFFF;strokeColor=#BD7000;align=center;verticalAlign=bottom;labelPosition=center;verticalLabelPosition=top;" parent="84" vertex="1">
                    <mxGeometry x="170.00307692307692" y="153.30170212765955" width="32.97872340425532" height="32.97872340425532" as="geometry"/>
                </mxCell>
                <mxCell id="13" style="edgeStyle=orthogonalEdgeStyle;html=1;entryX=0;entryY=0.5;entryDx=0;entryDy=0;exitX=0.5;exitY=1;exitDx=0;exitDy=0;" parent="84" source="116" target="12" edge="1">
                    <mxGeometry relative="1" as="geometry"/>
                </mxCell>
                <mxCell id="14" value="PR" style="ellipse;whiteSpace=wrap;html=1;aspect=fixed;fillColor=#fa6800;fontColor=#FFFFFF;strokeColor=#C73500;align=center;verticalAlign=bottom;labelPosition=center;verticalLabelPosition=top;" parent="84" vertex="1">
                    <mxGeometry x="260.00307692307695" y="202.76978723404255" width="32.97872340425532" height="32.97872340425532" as="geometry"/>
                </mxCell>
                <mxCell id="15" style="edgeStyle=orthogonalEdgeStyle;html=1;entryX=0;entryY=0.5;entryDx=0;entryDy=0;exitX=0.5;exitY=1;exitDx=0;exitDy=0;" parent="84" source="116" target="14" edge="1">
                    <mxGeometry relative="1" as="geometry"/>
                </mxCell>
                <mxCell id="131" style="edgeStyle=orthogonalEdgeStyle;html=1;entryX=0.5;entryY=1;entryDx=0;entryDy=0;exitX=1;exitY=0.5;exitDx=0;exitDy=0;" edge="1" parent="84" source="12" target="130">
                    <mxGeometry relative="1" as="geometry">
                        <mxPoint x="247.4689773930977" y="169.80000000000007" as="sourcePoint"/>
                    </mxGeometry>
                </mxCell>
                <mxCell id="134" style="edgeStyle=orthogonalEdgeStyle;html=1;" edge="1" parent="84" target="132">
                    <mxGeometry relative="1" as="geometry">
                        <mxPoint x="291.05895055436235" y="219.39999999999998" as="sourcePoint"/>
                    </mxGeometry>
                </mxCell>
                <mxCell id="121" value="" style="edgeStyle=none;html=1;entryX=0;entryY=0.5;entryDx=0;entryDy=0;" edge="1" parent="84" source="116" target="130">
                    <mxGeometry relative="1" as="geometry">
                        <mxPoint x="224.99999999999" y="98.49000000000001" as="targetPoint"/>
                    </mxGeometry>
                </mxCell>
                <mxCell id="116" value="deploy" style="ellipse;whiteSpace=wrap;html=1;aspect=fixed;fillColor=#1ba1e2;fontColor=#ffffff;strokeColor=#006EAF;align=center;verticalAlign=bottom;labelPosition=center;verticalLabelPosition=top;" vertex="1" parent="84">
                    <mxGeometry x="111" y="81.99787234042552" width="32.97872340425532" height="32.97872340425532" as="geometry"/>
                </mxCell>
                <mxCell id="133" style="edgeStyle=orthogonalEdgeStyle;html=1;" edge="1" parent="84" source="130" target="132">
                    <mxGeometry relative="1" as="geometry"/>
                </mxCell>
                <mxCell id="130" value="commit" style="ellipse;whiteSpace=wrap;html=1;aspect=fixed;fillColor=#1ba1e2;fontColor=#ffffff;strokeColor=#006EAF;align=center;verticalAlign=bottom;labelPosition=center;verticalLabelPosition=top;" vertex="1" parent="84">
                    <mxGeometry x="320" y="81.99787234042552" width="32.97872340425532" height="32.97872340425532" as="geometry"/>
                </mxCell>
                <mxCell id="132" value="commit" style="ellipse;whiteSpace=wrap;html=1;aspect=fixed;fillColor=#1ba1e2;fontColor=#ffffff;strokeColor=#006EAF;align=center;verticalAlign=bottom;labelPosition=center;verticalLabelPosition=top;" vertex="1" parent="84">
                    <mxGeometry x="394" y="82" width="32.97872340425532" height="32.97872340425532" as="geometry"/>
                </mxCell>
                <mxCell id="86" value="Environments" style="swimlane;horizontal=0;whiteSpace=wrap;html=1;glass=0;dashed=1;dashPattern=8 8;fillStyle=auto;gradientColor=none;" parent="1" vertex="1">
                    <mxGeometry x="10" y="640" width="1460" height="200" as="geometry"/>
                </mxCell>
                <mxCell id="87" value="Development" style="rounded=1;whiteSpace=wrap;html=1;glass=0;dashed=1;dashPattern=8 8;fillStyle=auto;gradientColor=#ea6b66;fillColor=#f8cecc;strokeColor=#b85450;fontColor=#000000;" parent="86" vertex="1">
                    <mxGeometry x="701" y="20" width="120" height="60" as="geometry"/>
                </mxCell>
                <mxCell id="88" value="Development" style="rounded=1;whiteSpace=wrap;html=1;glass=0;dashed=1;dashPattern=8 8;fillStyle=auto;gradientColor=#ea6b66;fillColor=#f8cecc;strokeColor=#b85450;fontColor=#000000;" parent="86" vertex="1">
                    <mxGeometry x="1082" y="20" width="120" height="60" as="geometry"/>
                </mxCell>
                <mxCell id="91" value="&lt;font color=&quot;#000000&quot;&gt;Production&lt;/font&gt;" style="rounded=1;whiteSpace=wrap;html=1;glass=0;dashed=1;dashPattern=8 8;fillStyle=auto;gradientColor=#ffd966;fillColor=#fff2cc;strokeColor=#d6b656;" parent="86" vertex="1">
                    <mxGeometry x="704" y="110" width="120" height="60" as="geometry"/>
                </mxCell>
                <mxCell id="92" value="&lt;font color=&quot;#000000&quot;&gt;Production&lt;/font&gt;" style="rounded=1;whiteSpace=wrap;html=1;glass=0;dashed=1;dashPattern=8 8;fillStyle=auto;gradientColor=#ffd966;fillColor=#fff2cc;strokeColor=#d6b656;" parent="86" vertex="1">
                    <mxGeometry x="1181" y="110" width="120" height="60" as="geometry"/>
                </mxCell>
                <mxCell id="114" value="Multiple PRs to deployment branch" style="text;html=1;strokeColor=none;fillColor=none;align=center;verticalAlign=middle;whiteSpace=wrap;rounded=0;fontSize=22;" parent="1" vertex="1">
                    <mxGeometry x="10" y="20" width="360" height="30" as="geometry"/>
                </mxCell>
                <mxCell id="127" value="Triggers" style="edgeStyle=orthogonalEdgeStyle;html=1;entryX=0.458;entryY=-0.045;entryDx=0;entryDy=0;entryPerimeter=0;exitX=1;exitY=0.5;exitDx=0;exitDy=0;dashed=1;dashPattern=1 1;" edge="1" parent="1" source="14" target="68">
                    <mxGeometry relative="1" as="geometry">
                        <mxPoint x="301.05895055436235" y="299.4" as="sourcePoint"/>
                        <mxPoint x="410" y="370" as="targetPoint"/>
                        <Array as="points">
                            <mxPoint x="414" y="299"/>
                        </Array>
                    </mxGeometry>
                </mxCell>
                <mxCell id="128" value="Triggers" style="edgeStyle=orthogonalEdgeStyle;html=1;entryX=0.5;entryY=0;entryDx=0;entryDy=0;exitX=1;exitY=0.5;exitDx=0;exitDy=0;dashed=1;dashPattern=1 1;" edge="1" parent="1" source="12" target="30">
                    <mxGeometry x="0.3465" relative="1" as="geometry">
                        <mxPoint x="240.97961811238406" y="266.28042553191506" as="sourcePoint"/>
                        <mxPoint as="offset"/>
                    </mxGeometry>
                </mxCell>
                <mxCell id="146" value="Triggers" style="edgeStyle=orthogonalEdgeStyle;html=1;entryX=0.5;entryY=0;entryDx=0;entryDy=0;exitX=1;exitY=1;exitDx=0;exitDy=0;dashed=1;dashPattern=1 1;" edge="1" parent="1" source="130" target="135">
                    <mxGeometry relative="1" as="geometry"/>
                </mxCell>
                <mxCell id="7GTSfHInl9Ud3nvunqyQ-157" value="Triggers" style="edgeStyle=orthogonalEdgeStyle;html=1;dashed=1;dashPattern=1 1;fontColor=#FFFFFF;" edge="1" parent="1" source="132" target="7GTSfHInl9Ud3nvunqyQ-146">
                    <mxGeometry relative="1" as="geometry"/>
                </mxCell>
                <mxCell id="7GTSfHInl9Ud3nvunqyQ-158" style="edgeStyle=orthogonalEdgeStyle;html=1;dashed=1;dashPattern=1 1;fontColor=#FFFFFF;" edge="1" parent="1" source="140" target="87">
                    <mxGeometry relative="1" as="geometry"/>
                </mxCell>
                <mxCell id="7GTSfHInl9Ud3nvunqyQ-159" style="edgeStyle=orthogonalEdgeStyle;html=1;dashed=1;dashPattern=1 1;fontColor=#FFFFFF;" edge="1" parent="1" source="7GTSfHInl9Ud3nvunqyQ-151" target="88">
                    <mxGeometry relative="1" as="geometry"/>
                </mxCell>
                <mxCell id="7GTSfHInl9Ud3nvunqyQ-160" style="edgeStyle=orthogonalEdgeStyle;html=1;dashed=1;dashPattern=1 1;fontColor=#FFFFFF;" edge="1" parent="1" source="7GTSfHInl9Ud3nvunqyQ-153" target="92">
                    <mxGeometry relative="1" as="geometry"/>
                </mxCell>
            </root>
        </mxGraphModel>
    </diagram>
</mxfile>